<svg width="128" height="128" viewBox="0 0 128 128" fill="none" xmlns="http://www.w3.org/2000/svg">
<path d="M76.0803 74.3255C76.4739 74.3255 76.8621 74.3255 77.1892 74.3415C77.5344 74.3584 77.9985 74.3992 78.4819 74.5561C79.9866 75.0438 81.0006 76.2244 81.0774 77.564C81.1022 77.9942 81.0024 78.3733 80.9126 78.652C80.8277 78.916 80.7049 79.2234 80.5804 79.5363C80.1447 80.6314 79.7103 81.724 79.1625 82.4453C78.0224 83.9473 76.2335 85.0263 74.165 85.4571C73.1713 85.6639 72.092 85.6633 70.7131 85.6626L70.464 85.6623H58.4429L58.1938 85.6626C56.8148 85.6633 55.7355 85.6639 54.7417 85.4571C52.6733 85.0263 50.8845 83.9473 49.7444 82.4453C49.1967 81.724 48.8568 80.8693 48.4212 79.7743C48.2965 79.4614 48.0792 78.916 47.9942 78.652C47.9045 78.3733 47.8047 77.9942 47.8294 77.564C47.9062 76.2244 48.9201 75.0438 50.4248 74.5561C50.9082 74.3992 51.3724 74.3584 51.7178 74.3415C52.0449 74.3255 52.433 74.3255 52.8267 74.3255H76.0803Z" fill="#FFA300"/>
<path fill-rule="evenodd" clip-rule="evenodd" d="M64.4534 37.8575C53.0619 37.8575 43.8785 46.958 43.8785 58.1213C43.8785 61.9401 44.9483 65.5051 46.8091 68.5511C47.6532 69.9327 47.2134 71.7345 45.8268 72.5756C44.4402 73.4167 42.6318 72.9786 41.7878 71.597C39.3837 67.6616 38 63.0472 38 58.1213C38 43.6668 49.8719 32 64.4534 32C79.0348 32 90.9068 43.6668 90.9068 58.1213C90.9068 63.0472 89.5231 67.6616 87.119 71.597C86.2749 72.9786 84.4667 73.4167 83.0799 72.5756C81.6935 71.7345 81.2536 69.9327 82.0977 68.5511C83.9585 65.5051 85.0284 61.9401 85.0284 58.1213C85.0284 46.958 75.845 37.8575 64.4534 37.8575ZM64.4534 58.3589C66.0766 58.3589 67.3926 59.6703 67.3926 61.2877V75.9314C67.3926 77.5492 66.0766 78.8603 64.4534 78.8603C62.8302 78.8603 61.5142 77.5492 61.5142 75.9314V61.2877C61.5142 59.6703 62.8302 58.3589 64.4534 58.3589Z" fill="#FFA300"/>
<path d="M53.6218 88.3923C53.9829 90.2048 54.2643 91.6178 54.9273 92.7869C55.9456 94.5827 57.5956 95.9353 59.5561 96.5817C60.8328 97.0025 62.6099 97.0013 64.4583 96.9998C66.3064 97.0013 68.0838 97.0025 69.3602 96.5817C71.3207 95.9353 72.9708 94.5827 73.9891 92.7869C74.6521 91.6178 74.9335 90.2048 75.2945 88.3923L75.3867 87.9301H53.5296L53.6218 88.3923Z" fill="#FFA300"/>
</svg>
