<svg width="128" height="128" viewBox="0 0 128 128" fill="none" xmlns="http://www.w3.org/2000/svg">
<path fill-rule="evenodd" clip-rule="evenodd" d="M61.6795 92H65.459C67.9684 92 69.3516 92 70.7897 91.4077C72.1718 90.8436 73.159 89.8567 74.9359 88.0798L88.0795 74.9359C89.8564 73.159 90.8154 72.1718 91.4077 70.7615C92 69.3516 92 67.9701 92 65.4607V61.6795C92 50.4538 92 44.8407 88.0795 40.9202C84.1593 37 78.547 37 67.3231 37H61.6795C50.4555 37 44.8408 37 40.9205 40.9202C37 44.8407 37 50.4538 37 61.6795V67.3205C37 78.5462 37 84.1593 40.9205 88.0798C44.8408 92 50.4555 92 61.6795 92ZM61.6781 41.2308H67.3205C77.3607 41.2308 82.4103 41.2308 85.0897 43.9101C87.7692 46.5896 87.7692 51.6385 87.7692 61.6795V65.4593C87.7692 66.6329 87.7692 67.4378 87.7292 68.0256H87.0641C78.5179 68.0256 74.2308 68.0259 71.1282 71.1285C68.0256 74.2311 68.0256 78.5179 68.0256 87.0641V87.7292C67.4333 87.7692 66.6309 87.7692 65.459 87.7692H61.6795C51.6396 87.7692 46.5896 87.7692 43.9103 85.0897C41.2308 82.4103 41.2308 77.3615 41.2308 67.3205V61.6795C41.2308 51.6385 41.2308 46.5896 43.9103 43.9101C46.5896 41.2308 51.638 41.2308 61.6781 41.2308ZM72.2589 84.7772L84.7767 72.2589C78.8905 72.2784 75.7767 72.4592 74.1179 74.1177C72.4595 75.7764 72.2784 78.8908 72.2589 84.7772Z" fill="#2A3244"/>
<path d="M67.3232 36C72.9046 36 77.2006 35.9976 80.5869 36.501C84.0171 37.0109 86.627 38.0539 88.7861 40.2129L89.1787 40.623C91.0745 42.7016 92.0209 45.1968 92.499 48.4131C93.0025 51.8 93 56.0972 93 61.6797V65.4609C93 67.7589 93.0137 69.3122 92.4502 70.8428L92.3301 71.1484C91.7332 72.5695 90.8046 73.6085 89.4121 75.0156L75.6426 88.7871C73.91 90.5197 72.7749 91.678 71.168 92.334L71.167 92.333C69.5111 93.0141 67.9122 93 65.459 93H61.6797C56.098 93 51.8011 93.0025 48.4141 92.499C44.9833 91.9891 42.3731 90.9462 40.2139 88.7871C38.0545 86.6278 37.011 84.0176 36.501 80.5869C35.9975 77.2 36 72.9028 36 67.3203V61.6797C36 56.0972 35.9975 51.8 36.501 48.4131C37.011 44.9824 38.0545 42.3722 40.2139 40.2129L40.624 39.8213C42.7025 37.9257 45.1977 36.9791 48.4141 36.501C51.8011 35.9975 56.098 36 61.6797 36H67.3232ZM61.6797 37C50.456 37 44.8411 37 40.9209 40.9199C37.0004 44.8404 37 50.454 37 61.6797V67.3203C37 78.546 37.0004 84.1596 40.9209 88.0801C44.8411 92 50.456 92 61.6797 92H65.459C67.9684 92 69.3519 91.9995 70.79 91.4072C72.1718 90.8431 73.159 89.8566 74.9355 88.0801L88.0791 74.9355C89.8559 73.1588 90.8149 72.1718 91.4072 70.7617C91.9995 69.3518 92 67.9702 92 65.4609V61.6797C92 50.454 91.9996 44.8404 88.0791 40.9199C84.1589 37.0001 78.5467 37 67.3232 37H61.6797ZM67.3203 41.2305C77.3605 41.2305 82.4104 41.2308 85.0898 43.9102C87.7693 46.5897 87.7695 51.6388 87.7695 61.6797V65.459C87.7695 66.6324 87.7695 67.4376 87.7295 68.0254H87.0645C78.5183 68.0254 74.2305 68.0263 71.1279 71.1289C68.0257 74.2314 68.0254 78.5186 68.0254 87.0645V87.7295C67.4331 87.7695 66.6307 87.7695 65.459 87.7695H61.6797C51.6398 87.7695 46.5895 87.7693 43.9102 85.0898C41.2307 82.4104 41.2305 77.3613 41.2305 67.3203V61.6797C41.2305 51.6388 41.2308 46.5897 43.9102 43.9102C46.5895 41.2308 51.6378 41.2305 61.6777 41.2305H67.3203ZM61.6777 42.2305C56.6324 42.2305 52.9302 42.2322 50.1504 42.5586C47.374 42.8846 45.7175 43.5169 44.6172 44.6172C43.5169 45.7175 42.8847 47.374 42.5586 50.1504C42.2321 52.9305 42.2305 56.6337 42.2305 61.6797V67.3203C42.2305 72.366 42.2322 76.0686 42.5586 78.8486C42.8847 81.6253 43.5168 83.2825 44.6172 84.3828L44.8301 84.584C45.9289 85.5612 47.5481 86.1357 50.1514 86.4414C52.9316 86.7679 56.6344 86.7695 61.6797 86.7695H65.459C66.0912 86.7695 66.6025 86.7685 67.0254 86.7627C67.0255 82.6654 67.0323 79.4618 67.4248 76.9033C67.8342 74.2346 68.676 72.1658 70.4209 70.4209C72.1657 68.6761 74.2347 67.8343 76.9033 67.4248C79.4618 67.0322 82.6654 67.0255 86.7627 67.0254C86.7684 66.6029 86.7695 66.091 86.7695 65.459V61.6797C86.7695 56.6337 86.7679 52.9305 86.4414 50.1504C86.1357 47.5476 85.5611 45.9288 84.584 44.8301L84.3828 44.6172C83.2825 43.5169 81.6254 42.8846 78.8486 42.5586C76.0684 42.2322 72.3658 42.2305 67.3203 42.2305H61.6777ZM72.2588 84.7773C72.2783 78.8909 72.4597 75.7759 74.1182 74.1172C75.777 72.4591 78.8908 72.2783 84.7764 72.2588L72.2588 84.7773ZM82.3369 73.2832C80.5743 73.3169 79.1587 73.3922 78.0088 73.5625C76.4765 73.7894 75.5533 74.1665 74.9434 74.7129L74.8252 74.8252C74.218 75.4326 73.8056 76.374 73.5635 78.0088C73.3932 79.1587 73.3169 80.5743 73.2832 82.3369L82.3369 73.2832Z" fill="#2A3244"/>
</svg>
