<svg width="128" height="128" viewBox="0 0 128 128" fill="none" xmlns="http://www.w3.org/2000/svg">
<path d="M38.8837 78.6512H47.9534V41.6744C47.9534 37.4353 51.3888 34 55.6279 34H83.5348C87.7739 34 91.2093 37.4353 91.2093 41.6744V86.3256C91.2093 90.5647 87.7739 94 83.5348 94H44.4651C40.226 94 36.7906 90.5647 36.7906 86.3256V80.7442C36.7906 79.5888 37.7283 78.6512 38.8837 78.6512ZM52.1395 41.6744V78.6512H77.9534C79.1088 78.6512 80.0465 79.5888 80.0465 80.7442V86.3256C80.0465 88.2512 81.6093 89.814 83.5348 89.814C85.4604 89.814 87.0232 88.2512 87.0232 86.3256V41.6744C87.0232 39.7488 85.4604 38.186 83.5348 38.186H55.6279C53.7023 38.186 52.1395 39.7488 52.1395 41.6744ZM75.8604 86.3256V82.8372H40.9767V86.3256C40.9767 88.2512 42.5395 89.814 44.4651 89.814H76.6976C76.1618 88.7674 75.8604 87.5814 75.8604 86.3256ZM61.2093 45.1851H77.9534C79.1088 45.1851 80.0465 46.1228 80.0465 47.2781C80.0465 48.4335 79.1088 49.3712 77.9534 49.3712H61.2093C60.0539 49.3712 59.1162 48.4335 59.1162 47.2781C59.1162 46.1228 60.0539 45.1851 61.2093 45.1851ZM61.2093 56.3256H77.9534C79.1088 56.3256 80.0465 57.2633 80.0465 58.4186C80.0465 59.574 79.1088 60.5116 77.9534 60.5116H61.2093C60.0539 60.5116 59.1162 59.574 59.1162 58.4186C59.1162 57.2633 60.0539 56.3256 61.2093 56.3256ZM59.1162 69.5814C59.1162 68.426 60.0539 67.4884 61.2093 67.4884H69.5813C70.7367 67.4884 71.6744 68.426 71.6744 69.5814C71.6744 70.7367 70.7367 71.6744 69.5813 71.6744H61.2093C60.0539 71.6744 59.1162 70.7367 59.1162 69.5814Z" fill="#505050"/>
<path d="M35.7906 86.3252V80.7441C35.7907 79.0366 37.1759 77.6515 38.8834 77.6514V78.6514L38.6696 78.6621C37.6147 78.7695 36.7907 79.6611 36.7906 80.7441V86.3252L36.8004 86.7207C36.9994 90.6452 40.1454 93.7913 44.0699 93.9902L44.4655 94H83.5348L83.9303 93.9902C87.8546 93.7911 90.9999 90.6451 91.1989 86.7207L91.2096 86.3252V41.6748C91.2096 37.5684 87.9855 34.2155 83.9303 34.0098L83.5348 34V33C88.3261 33 92.2096 36.8835 92.2096 41.6748V86.3252C92.2096 91.1166 88.3261 95 83.5348 95H44.4655C39.6741 95 35.7906 91.1166 35.7906 86.3252ZM74.86 86.3252V83.8369H41.9772V86.3252C41.9772 87.6985 43.0922 88.8135 44.4655 88.8135V89.8135L44.2858 89.8096C42.5028 89.7192 41.0715 88.2879 40.9811 86.5049L40.9772 86.3252V82.8369H75.86V86.3252L75.8746 86.793C75.9396 87.8755 76.2291 88.8978 76.6979 89.8135H44.4655V88.8135H75.2233C74.9873 88.0245 74.86 87.1887 74.86 86.3252ZM80.0465 86.3252V80.7441C80.0465 79.6611 79.2225 78.7695 78.1676 78.6621L77.9537 78.6514V77.6514C79.6612 77.6515 81.0465 79.0366 81.0465 80.7441V86.3252C81.0465 87.6985 82.1615 88.8134 83.5348 88.8135V89.8135L83.3551 89.8096C81.5723 89.719 80.1418 88.2877 80.0514 86.5049L80.0465 86.3252ZM86.0231 86.3252V41.6748C86.0231 40.3015 84.9081 39.1865 83.5348 39.1865H55.6276C54.2544 39.1867 53.1393 40.3016 53.1393 41.6748V77.6514H77.9537V78.6514H52.1393V41.6748C52.1393 39.8093 53.6063 38.2837 55.4489 38.1904L55.6276 38.1865H83.5348C85.4604 38.1865 87.0231 39.7492 87.0231 41.6748V86.3252L87.0182 86.5049C86.9248 88.3472 85.4002 89.8135 83.5348 89.8135V88.8135C84.9081 88.8135 86.0231 87.6985 86.0231 86.3252ZM46.9537 41.6748C46.9537 36.8835 50.8363 33.0002 55.6276 33V34L55.233 34.0098C51.1775 34.2152 47.9537 37.5682 47.9537 41.6748V78.6514H38.8834V77.6514H46.9537V41.6748ZM58.1158 69.5811C58.116 67.8736 59.5021 66.4883 61.2096 66.4883V67.4883L60.9957 67.499C59.9407 67.6061 59.116 68.4979 59.1158 69.5811L59.1266 69.7949C59.2265 70.7799 60.0107 71.5641 60.9957 71.6641L61.2096 71.6748H69.5817L69.7955 71.6641C70.7802 71.5639 71.5638 70.7797 71.6637 69.7949L71.6744 69.5811C71.6743 68.4982 70.8503 67.6064 69.7955 67.499L69.5817 67.4883V66.4883C71.289 66.4885 72.6743 67.8737 72.6744 69.5811C72.6744 71.2886 71.2892 72.6746 69.5817 72.6748H61.2096C59.502 72.6748 58.1158 71.2887 58.1158 69.5811ZM69.5817 66.4883V67.4883H61.2096V66.4883H69.5817ZM58.1158 58.4189C58.1158 56.7113 59.502 55.3252 61.2096 55.3252V56.3252L60.9957 56.3359C59.9405 56.443 59.1158 57.3357 59.1158 58.4189L59.1266 58.6328C59.2268 59.6175 60.011 60.4011 60.9957 60.501L61.2096 60.5117H77.9537L78.1676 60.501C79.1521 60.4008 79.9356 59.6173 80.0358 58.6328L80.0465 58.4189C80.0465 57.3359 79.2225 56.4433 78.1676 56.3359L77.9537 56.3252V55.3252C79.6612 55.3254 81.0465 56.7114 81.0465 58.4189C81.0463 60.1263 79.6611 61.5116 77.9537 61.5117H61.2096C59.5021 61.5117 58.116 60.1264 58.1158 58.4189ZM77.9537 55.3252V56.3252H61.2096V55.3252H77.9537ZM58.1158 47.2783C58.1158 45.5707 59.502 44.1855 61.2096 44.1855V45.1855L60.9957 45.1963C59.9406 45.3034 59.1158 46.1951 59.1158 47.2783L59.1266 47.4922C59.2267 48.4769 60.0109 49.2604 60.9957 49.3604L61.2096 49.3711H77.9537L78.1676 49.3604C79.1521 49.2601 79.9356 48.4767 80.0358 47.4922L80.0465 47.2783C80.0465 46.1953 79.2225 45.3037 78.1676 45.1963L77.9537 45.1855V44.1855C79.6612 44.1857 81.0465 45.5708 81.0465 47.2783C81.0464 48.9858 79.6612 50.3709 77.9537 50.3711H61.2096C59.502 50.3711 58.1159 48.9859 58.1158 47.2783ZM77.9537 44.1855V45.1855H61.2096V44.1855H77.9537ZM83.5348 33V34H55.6276V33H83.5348Z" fill="#505050"/>
</svg>
