<svg width="128" height="128" viewBox="0 0 128 128" fill="none" xmlns="http://www.w3.org/2000/svg">
<path d="M65.0876 64.5C65.0876 68.2928 64.3512 71.4922 62.8784 74.0984C61.4057 76.6934 59.418 78.6619 56.9154 80.0038C54.4127 81.3346 51.6222 82 48.5438 82C45.4432 82 42.6416 81.3291 40.139 79.9872C37.6475 78.6342 35.6653 76.6602 34.1926 74.0651C32.7309 71.459 32 68.2706 32 64.5C32 60.7072 32.7309 57.5133 34.1926 54.9183C35.6653 52.3121 37.6475 50.3436 40.139 49.0128C42.6416 47.6709 45.4432 47 48.5438 47C51.6222 47 54.4127 47.6709 56.9154 49.0128C59.418 50.3436 61.4057 52.3121 62.8784 54.9183C64.3512 57.5133 65.0876 60.7072 65.0876 64.5ZM55.5865 64.5C55.5865 62.4594 55.3152 60.7405 54.7726 59.3432C54.2411 57.9347 53.4493 56.8701 52.3974 56.1492C51.3565 55.4173 50.0719 55.0513 48.5438 55.0513C47.0157 55.0513 45.7256 55.4173 44.6736 56.1492C43.6327 56.8701 42.8409 57.9347 42.2983 59.3432C41.7668 60.7405 41.5011 62.4594 41.5011 64.5C41.5011 66.5406 41.7668 68.2651 42.2983 69.6735C42.8409 71.0708 43.6327 72.1355 44.6736 72.8674C45.7256 73.5882 47.0157 73.9487 48.5438 73.9487C50.0719 73.9487 51.3565 73.5882 52.3974 72.8674C53.4493 72.1355 54.2411 71.0708 54.7726 69.6735C55.3152 68.2651 55.5865 66.5406 55.5865 64.5Z" fill="#7370A9"/>
<path d="M87.6983 58.1122C87.6097 57.0032 87.1944 56.1381 86.4525 55.5171C85.7217 54.8961 84.6088 54.5856 83.1138 54.5856C82.1615 54.5856 81.3808 54.702 80.7718 54.9349C80.1738 55.1567 79.7309 55.4617 79.443 55.8498C79.1551 56.238 79.0056 56.6816 78.9945 57.1806C78.9724 57.5909 79.0443 57.9625 79.2104 58.2952C79.3876 58.6168 79.6645 58.9106 80.041 59.1768C80.4175 59.4319 80.8991 59.6648 81.486 59.8755C82.0729 60.0862 82.7706 60.2747 83.5789 60.4411L86.3695 61.0399C88.2519 61.4392 89.8631 61.9659 91.203 62.6202C92.5429 63.2746 93.6392 64.0453 94.4919 64.9325C95.3445 65.8086 95.9702 66.7956 96.3688 67.8935C96.7785 68.9914 96.9889 70.1892 97 71.4867C96.9889 73.7269 96.4297 75.6233 95.3224 77.1759C94.215 78.7285 92.6315 79.9095 90.5718 80.7191C88.5232 81.5287 86.0594 81.9335 83.1803 81.9335C80.2237 81.9335 77.6435 81.4954 75.4399 80.6193C73.2474 79.7432 71.542 78.3958 70.324 76.577C69.117 74.7471 68.5079 72.4072 68.4968 69.557H77.267C77.3224 70.5995 77.5826 71.4756 78.0477 72.1854C78.5128 72.8951 79.1661 73.433 80.0077 73.799C80.8604 74.1649 81.8736 74.3479 83.0474 74.3479C84.0329 74.3479 84.8579 74.2259 85.5223 73.9819C86.1867 73.738 86.6906 73.3997 87.0339 72.9672C87.3771 72.5347 87.5543 72.0412 87.5654 71.4867C87.5543 70.9655 87.3827 70.5108 87.0505 70.1226C86.7293 69.7234 86.1978 69.3685 85.4559 69.058C84.714 68.7364 83.7118 68.4369 82.4494 68.1597L79.0609 67.4278C76.049 66.7734 73.6737 65.6811 71.9352 64.1507C70.2077 62.6092 69.3495 60.5076 69.3606 57.846C69.3495 55.6835 69.9253 53.7926 71.088 52.1735C72.2618 50.5433 73.8841 49.2734 75.9548 48.3641C78.0367 47.4547 80.423 47 83.1138 47C85.8601 47 88.2353 47.4602 90.2396 48.3807C92.2439 49.3012 93.7887 50.5987 94.8739 52.2733C95.9702 53.9368 96.5238 55.8831 96.5349 58.1122H87.6983Z" fill="#7370A9"/>
</svg>
